<?xml version="1.0" encoding="utf-8"?>
<!-- Generator: Adobe Illustrator 23.0.3, SVG Export Plug-In . SVG Version: 6.00 Build 0)  -->
<svg version="1.1" id="Layer_1" xmlns="http://www.w3.org/2000/svg" xmlns:xlink="http://www.w3.org/1999/xlink" x="0px" y="0px"
	 viewBox="0 0 335.06 121.63" style="enable-background:new 0 0 335.06 121.63;" xml:space="preserve">
<style type="text/css">
	.st0{fill:#38BFC3;}
	.st1{fill:#A0A0A0;}
	.st2{fill:#142361;}
</style>
<g>
	<g>
		<path class="st0" d="M133,104.66L133,104.66c5.22-4.05,10.61-8.24,10.47-16.46c-0.1-5.9-4.21-9.42-10.98-9.42
			c-6.02,0-11.1,3.92-13.24,10.24l-0.45,1.33l6.12,2l0.44-1.3c1.19-3.53,3.55-5.56,6.47-5.56c2.84,0,4.19,1.08,4.23,3.39
			c0.08,4.54-4.07,7.93-8.46,11.52c-5.03,4.11-10.23,8.36-11.1,15.24l-0.19,3.9h24.42l0.59-6.65h-16.37
			C126.65,109.59,129.74,107.19,133,104.66z M132.7,104.27L132.7,104.27L132.7,104.27L132.7,104.27z"/>
		<path class="st0" d="M171.51,90.31c-0.13-7.33-4.37-11.54-11.64-11.54c-7.86,0-12.96,4.97-13.98,13.63l-1.62,13.85
			c-0.1,0.84-0.14,1.63-0.12,2.4c0.13,7.23,4.37,11.38,11.63,11.38c7.83,0,12.91-4.91,13.93-13.47l1.67-13.85
			C171.48,91.88,171.52,91.09,171.51,90.31z M164.14,90.64c0.01,0.58,0.02,1.13-0.06,1.76l-1.62,13.84
			c-0.59,4.93-2.47,7.04-6.28,7.04c-3.25,0-4.66-1.48-4.72-4.94c-0.01-0.59-0.02-1.14,0.06-1.77l1.67-13.89
			c0.46-4.88,2.39-7.06,6.27-7.06c3.17,0,4.61,1.54,4.67,4.99l0.5-0.03l0,0L164.14,90.64z"/>
	</g>
	<g>
		<path class="st0" d="M213.33,104.66L213.33,104.66c5.22-4.05,10.61-8.24,10.47-16.46c-0.1-5.9-4.21-9.42-10.98-9.42
			c-6.02,0-11.1,3.92-13.24,10.24l-0.45,1.33l6.12,2l0.44-1.3c1.19-3.53,3.55-5.56,6.47-5.56c2.84,0,4.19,1.08,4.23,3.39
			c0.08,4.54-4.07,7.93-8.46,11.52c-5.03,4.11-10.23,8.36-11.1,15.24l-0.19,3.9h24.42l0.59-6.65h-16.37
			C206.98,109.59,210.07,107.19,213.33,104.66z M213.03,104.27L213.03,104.27L213.03,104.27L213.03,104.27z"/>
		<path class="st0" d="M251.84,90.31c-0.13-7.33-4.37-11.54-11.64-11.54c-7.86,0-12.96,4.97-13.98,13.63l-1.62,13.85
			c-0.1,0.84-0.14,1.63-0.12,2.4c0.13,7.23,4.37,11.38,11.63,11.38c7.83,0,12.91-4.91,13.93-13.47l1.67-13.85
			C251.81,91.88,251.85,91.09,251.84,90.31z M244.47,90.64c0.01,0.58,0.02,1.13-0.06,1.76l-1.62,13.84
			c-0.59,4.93-2.47,7.04-6.28,7.04c-3.25,0-4.66-1.48-4.72-4.94c-0.01-0.59-0.02-1.14,0.06-1.77l1.67-13.89
			c0.46-4.88,2.39-7.06,6.27-7.06c3.17,0,4.61,1.54,4.67,4.99l0.5-0.03l0,0L244.47,90.64z"/>
	</g>
</g>
<g>
	<path class="st0" d="M302.58,44.92l-2.91,0c-0.11,0-0.17,0.05-0.18,0.16l-0.53,4.84c0.01,0.11,0.06,0.16,0.15,0.16l2.91,0
		c0.92,0,1.65-0.29,2.19-0.86s0.78-1.34,0.71-2.32c-0.04-0.62-0.27-1.1-0.68-1.46C303.84,45.09,303.28,44.92,302.58,44.92z"/>
	<path class="st0" d="M271.91,45.37c-0.4-0.32-0.91-0.48-1.54-0.48l-3.1,0c-0.11,0-0.17,0.05-0.18,0.16l-0.47,4.46
		c-0.03,0.11,0.02,0.16,0.15,0.16l3.1,0c0.81-0.02,1.47-0.28,2-0.79c0.53-0.51,0.76-1.23,0.7-2.17
		C272.53,46.14,272.31,45.69,271.91,45.37z"/>
	<path class="st0" d="M287.81,45.38c-0.45-0.46-1.09-0.69-1.89-0.69c-0.75,0-1.38,0.19-1.87,0.58c-0.49,0.39-0.87,0.92-1.13,1.59
		c-0.09,0.22-0.18,0.52-0.27,0.91c-0.09,0.39-0.17,0.82-0.25,1.3c-0.08,0.48-0.14,0.98-0.19,1.51c-0.05,0.53-0.1,1.03-0.14,1.52
		c-0.04,0.49-0.07,0.93-0.08,1.33c-0.02,0.4-0.02,0.71,0,0.92c0.06,0.82,0.32,1.45,0.78,1.92c0.46,0.46,1.09,0.7,1.88,0.7
		c0.75,0,1.38-0.19,1.87-0.58c0.49-0.39,0.88-0.92,1.16-1.59c0.14-0.33,0.27-0.83,0.38-1.52c0.11-0.69,0.22-1.42,0.3-2.2
		c0.09-0.78,0.15-1.52,0.2-2.23c0.04-0.71,0.05-1.22,0.03-1.55C288.52,46.48,288.27,45.84,287.81,45.38z"/>
	<path class="st0" d="M331.42,30.24h-100.6c-1.08,0-2.6,0.76-3.11,1.92L211.5,70.71c-0.13,1.23,0.81,2.29,2.03,2.29h114.61
		c1.08,0,1.99-0.83,2.11-1.92l3.2-38.55C333.58,31.3,332.64,30.24,331.42,30.24z M243.87,44.61c-0.02,0.18-0.12,0.27-0.28,0.27
		l-7.6,0c-0.11,0-0.17,0.05-0.18,0.16l-0.4,3.89c-0.03,0.11,0.02,0.16,0.15,0.17l6.3,0c0.18,0,0.26,0.09,0.23,0.27l-0.3,2.72
		c-0.02,0.18-0.12,0.27-0.3,0.27l-6.3,0c-0.11,0-0.17,0.05-0.18,0.16l-0.42,4.05c-0.03,0.11,0.02,0.16,0.15,0.16l7.6,0
		c0.18,0,0.26,0.09,0.23,0.27l-0.32,2.77c-0.02,0.18-0.12,0.27-0.28,0.27l-11.23-0.01c-0.2,0-0.28-0.09-0.26-0.27l1.9-17.94
		c0.02-0.18,0.12-0.27,0.28-0.27l11.26,0.01c0.18,0,0.26,0.09,0.23,0.27L243.87,44.61z M259.14,53.45
		c-0.13,1.29-0.38,2.37-0.76,3.25s-0.86,1.59-1.45,2.13s-1.3,0.93-2.11,1.17s-1.73,0.35-2.74,0.35c-1.06,0-2.01-0.16-2.85-0.48
		c-0.84-0.32-1.54-0.78-2.1-1.39c-0.56-0.61-0.97-1.36-1.22-2.26c-0.25-0.9-0.32-1.92-0.2-3.06l1.21-11.33
		c0.02-0.18,0.11-0.27,0.25-0.27l3.26,0c0.2,0,0.28,0.09,0.26,0.27l-1.22,11.55c-0.12,1.16,0.07,2.04,0.57,2.65
		c0.5,0.61,1.21,0.91,2.12,0.91c0.9,0,1.62-0.25,2.16-0.76c0.54-0.51,0.89-1.44,1.04-2.8l1.24-11.55c0.02-0.18,0.12-0.27,0.28-0.27
		l3.23,0c0.2,0,0.28,0.09,0.26,0.27L259.14,53.45z M275.45,50.07c-0.71,1.09-1.67,1.88-2.89,2.36l2.61,7.31
		c0.04,0.09,0.04,0.17,0,0.23c-0.04,0.06-0.11,0.1-0.2,0.1l-3.21,0c-0.18,0-0.3-0.09-0.37-0.27l-2.33-6.85l-2.64,0
		c-0.12,0-0.18,0.05-0.18,0.16l-0.72,6.69c-0.02,0.18-0.11,0.27-0.25,0.27l-3.26,0c-0.2,0-0.28-0.09-0.26-0.27l1.9-17.94
		c0.02-0.18,0.12-0.27,0.28-0.27l6.95,0c1.63,0,2.93,0.42,3.88,1.27c0.96,0.84,1.48,1.94,1.58,3.3
		C276.46,47.67,276.16,48.98,275.45,50.07z M292.36,48.81c-0.04,0.82-0.12,1.7-0.22,2.62s-0.24,1.82-0.41,2.68
		c-0.17,0.86-0.35,1.54-0.55,2.03c-0.63,1.49-1.52,2.56-2.66,3.23c-1.14,0.67-2.53,1-4.16,1c-0.86,0-1.66-0.12-2.38-0.35
		s-1.36-0.59-1.91-1.07c-0.54-0.48-0.98-1.08-1.31-1.78c-0.33-0.71-0.52-1.52-0.59-2.45c-0.03-0.42-0.02-1.04,0.02-1.86
		c0.04-0.82,0.12-1.7,0.22-2.62s0.24-1.82,0.41-2.68c0.16-0.86,0.35-1.54,0.55-2.03c0.63-1.49,1.52-2.56,2.66-3.23
		c1.14-0.67,2.52-1,4.16-1c0.86,0,1.66,0.12,2.38,0.36c0.73,0.24,1.36,0.59,1.91,1.07c0.54,0.48,0.98,1.07,1.31,1.78
		c0.33,0.71,0.52,1.52,0.59,2.45C292.41,47.37,292.4,47.99,292.36,48.81z M308.37,49.35c-0.31,0.89-0.76,1.63-1.37,2.23
		c-0.61,0.6-1.34,1.05-2.21,1.36c-0.87,0.31-1.82,0.46-2.86,0.46l-3.15,0c-0.13,0-0.18,0.05-0.18,0.16l-0.67,6.25
		c-0.02,0.18-0.12,0.27-0.28,0.27l-3.26,0c-0.18,0-0.26-0.09-0.23-0.27l1.9-17.94c0.02-0.18,0.11-0.27,0.25-0.27l6.81,0
		c1.72,0,3.06,0.42,4.01,1.27c0.95,0.84,1.47,1.98,1.57,3.41C308.79,47.44,308.68,48.46,308.37,49.35z M323.19,44.65
		c-0.02,0.18-0.12,0.27-0.28,0.27l-7.6,0c-0.11,0-0.17,0.05-0.18,0.16l-0.4,3.89c-0.03,0.11,0.02,0.16,0.15,0.16l6.3,0
		c0.18,0,0.26,0.09,0.23,0.27l-0.3,2.72c-0.02,0.18-0.12,0.27-0.3,0.27l-6.3,0c-0.11,0-0.17,0.05-0.18,0.16l-0.42,4.05
		c-0.03,0.11,0.02,0.16,0.15,0.16l7.6,0c0.18,0,0.26,0.09,0.23,0.27l-0.32,2.77c-0.02,0.18-0.12,0.27-0.28,0.27l-11.23-0.01
		c-0.2,0-0.29-0.09-0.26-0.27l1.91-17.94c0.02-0.18,0.12-0.27,0.28-0.27l11.26,0.01c0.18,0,0.26,0.09,0.23,0.27L323.19,44.65z"/>
</g>
<g>
	<path class="st1" d="M172.97,16.29c-0.01-0.18,0.08-0.3,0.27-0.35l2.82-0.54c0.18-0.04,0.27,0.04,0.28,0.22
		c0.11,0.51,0.33,0.94,0.67,1.29c0.34,0.35,0.83,0.53,1.48,0.53c0.39,0,0.75-0.08,1.06-0.24c0.31-0.16,0.58-0.39,0.8-0.68
		c0.22-0.29,0.39-0.62,0.5-1c0.11-0.38,0.15-0.79,0.12-1.22c-0.05-0.65-0.26-1.16-0.64-1.52c-0.38-0.36-0.91-0.54-1.57-0.54l-0.73,0
		c-0.18,0-0.26-0.09-0.23-0.27l0.26-2.52c0.02-0.18,0.12-0.28,0.3-0.28h0.67c0.39,0,0.75-0.08,1.08-0.23
		c0.32-0.15,0.59-0.36,0.8-0.64c0.21-0.27,0.37-0.58,0.47-0.93c0.1-0.35,0.14-0.73,0.11-1.15c-0.04-0.52-0.21-0.94-0.52-1.24
		s-0.72-0.46-1.24-0.46c-0.58,0-1.04,0.17-1.41,0.5c-0.36,0.33-0.64,0.76-0.84,1.29c-0.04,0.16-0.15,0.23-0.31,0.19l-2.79-0.54
		c-0.15-0.04-0.2-0.13-0.16-0.3c0.17-0.6,0.43-1.15,0.77-1.67c0.34-0.52,0.77-0.96,1.28-1.33c0.51-0.37,1.09-0.67,1.74-0.88
		c0.65-0.22,1.37-0.33,2.16-0.33c1.53,0,2.71,0.37,3.55,1.12c0.84,0.74,1.3,1.71,1.39,2.91c0.07,1.03-0.09,1.98-0.49,2.84
		c-0.4,0.86-1.04,1.55-1.92,2.05l0,0.05c0.43,0.24,0.84,0.63,1.23,1.18c0.39,0.55,0.61,1.27,0.68,2.16
		c0.07,1.01-0.04,1.93-0.32,2.76c-0.29,0.83-0.71,1.54-1.27,2.13c-0.56,0.6-1.24,1.06-2.04,1.38c-0.8,0.33-1.68,0.49-2.65,0.49
		c-1.53,0-2.78-0.38-3.75-1.13C173.62,18.62,173.08,17.59,172.97,16.29z"/>
	<path class="st1" d="M187.07,14.58c-0.18,0-0.26-0.09-0.23-0.27l0.27-2.64c0.02-0.18,0.12-0.27,0.28-0.27l7.46,0
		c0.18,0,0.26,0.09,0.24,0.27l-0.28,2.64c-0.02,0.18-0.12,0.27-0.28,0.27L187.07,14.58z"/>
	<path class="st1" d="M197.97,16.41c-0.01-0.16,0.05-0.26,0.19-0.3l2.85-0.51c0.14-0.04,0.24,0.04,0.28,0.22
		c0.09,0.47,0.28,0.86,0.58,1.17c0.3,0.31,0.74,0.46,1.31,0.46c0.45,0,0.85-0.11,1.22-0.34s0.62-0.57,0.79-1.02
		c0.09-0.2,0.17-0.45,0.23-0.75c0.06-0.3,0.11-0.6,0.15-0.91c0.04-0.31,0.07-0.61,0.08-0.91c0.02-0.3,0.02-0.55,0-0.75
		c-0.08-1.2-0.69-1.79-1.82-1.79c-0.47,0-0.87,0.12-1.2,0.35s-0.57,0.51-0.71,0.82c-0.06,0.18-0.18,0.27-0.36,0.27l-2.75,0
		c-0.14,0-0.21-0.09-0.21-0.27L199.69,2c0.02-0.18,0.11-0.27,0.25-0.27l9.83,0c0.2,0,0.29,0.09,0.26,0.27l-0.28,2.58
		c-0.02,0.18-0.12,0.27-0.3,0.27l-6.76,0c-0.11,0-0.17,0.05-0.18,0.16l-0.41,3.83h0.05c0.25-0.25,0.61-0.48,1.08-0.67
		c0.47-0.19,1.05-0.29,1.73-0.29c1.26,0,2.25,0.33,2.99,0.97c0.74,0.64,1.15,1.65,1.25,3.01c0.03,0.36,0.03,0.78,0.01,1.24
		c-0.02,0.46-0.06,0.94-0.12,1.44c-0.06,0.5-0.13,0.98-0.24,1.46c-0.1,0.47-0.23,0.89-0.38,1.25c-0.46,1.13-1.15,1.95-2.08,2.46
		c-0.92,0.52-2.06,0.78-3.41,0.77c-1.53,0-2.73-0.38-3.61-1.14C198.51,18.61,198.04,17.62,197.97,16.41z"/>
	<path class="st1" d="M215.46,18.1c-0.06-0.14-0.03-0.27,0.11-0.38l2.44-1.73c0.14-0.09,0.26-0.07,0.35,0.06
		c0.25,0.31,0.56,0.57,0.92,0.77c0.36,0.21,0.76,0.31,1.21,0.31c0.86,0,1.52-0.26,1.98-0.78c0.46-0.52,0.75-1.34,0.87-2.46
		l1.25-11.87c0.02-0.18,0.12-0.27,0.28-0.27l3.29,0c0.18,0,0.26,0.09,0.23,0.27l-1.24,11.66c-0.13,1.25-0.37,2.31-0.72,3.18
		s-0.81,1.58-1.38,2.12s-1.24,0.94-2.02,1.18s-1.68,0.37-2.68,0.37c-0.54,0-1.06-0.07-1.56-0.2c-0.5-0.14-0.97-0.31-1.41-0.53
		c-0.44-0.22-0.82-0.47-1.14-0.77C215.9,18.73,215.65,18.42,215.46,18.1z"/>
	<path class="st1" d="M236.78,20.54c-1.06,0-2.01-0.16-2.85-0.48c-0.84-0.32-1.54-0.78-2.1-1.39c-0.56-0.61-0.97-1.36-1.22-2.26
		c-0.25-0.9-0.32-1.92-0.2-3.06l1.21-11.33c0.02-0.18,0.11-0.27,0.25-0.27l3.26,0c0.2,0,0.29,0.09,0.26,0.27l-1.22,11.55
		c-0.12,1.16,0.07,2.04,0.58,2.65c0.5,0.61,1.21,0.91,2.12,0.91c0.9,0,1.62-0.25,2.16-0.76c0.54-0.51,0.89-1.44,1.04-2.8l1.24-11.55
		c0.02-0.18,0.12-0.27,0.28-0.27l3.23,0c0.2,0,0.29,0.09,0.26,0.27l-1.24,11.61c-0.13,1.29-0.38,2.37-0.76,3.25
		s-0.86,1.59-1.45,2.13c-0.59,0.54-1.3,0.93-2.11,1.17C238.69,20.42,237.78,20.54,236.78,20.54z"/>
	<path class="st1" d="M248.37,2.03c0.02-0.18,0.12-0.27,0.28-0.27l3.07,0c0.22,0,0.36,0.09,0.42,0.27l5,11.88h0.11l1.28-11.88
		c0.02-0.18,0.12-0.27,0.28-0.27l2.91,0c0.2,0,0.29,0.09,0.26,0.27l-1.91,17.94c-0.02,0.18-0.12,0.27-0.28,0.27l-3.1,0
		c-0.18,0-0.31-0.09-0.4-0.27l-5.03-11.88h-0.13l-1.25,11.88c-0.02,0.18-0.11,0.27-0.25,0.27l-2.91,0c-0.2,0-0.29-0.09-0.26-0.27
		L248.37,2.03z"/>
	<path class="st1" d="M265.36,2.04c0.02-0.18,0.12-0.27,0.28-0.27l11.26,0.01c0.18,0,0.26,0.09,0.23,0.27l-0.29,2.77
		c-0.02,0.18-0.12,0.27-0.28,0.27l-7.6,0c-0.11,0-0.17,0.05-0.18,0.16l-0.4,3.89c-0.03,0.11,0.02,0.16,0.15,0.17l6.3,0
		c0.18,0,0.26,0.09,0.23,0.27l-0.3,2.72c-0.02,0.18-0.12,0.27-0.3,0.27l-6.3,0c-0.11,0-0.17,0.05-0.18,0.16l-0.42,4.05
		c-0.03,0.11,0.02,0.16,0.15,0.16l7.6,0c0.18,0,0.26,0.09,0.23,0.27l-0.32,2.77c-0.02,0.18-0.12,0.27-0.28,0.27l-11.23-0.01
		c-0.2,0-0.28-0.09-0.26-0.27L265.36,2.04z"/>
	<path class="st1" d="M283.92,17.6c0.04-0.18,0.11-0.33,0.21-0.43l6.98-7.77c0.5-0.58,0.86-1.11,1.09-1.59
		c0.23-0.48,0.32-1,0.28-1.56c-0.04-0.51-0.21-0.92-0.52-1.22c-0.31-0.31-0.72-0.46-1.24-0.46c-0.61,0-1.12,0.19-1.54,0.58
		c-0.41,0.39-0.69,0.95-0.84,1.67c-0.04,0.16-0.15,0.24-0.31,0.22l-2.78-0.49c-0.15-0.04-0.2-0.14-0.16-0.3
		c0.12-0.63,0.32-1.24,0.62-1.81c0.29-0.57,0.69-1.07,1.19-1.51c0.5-0.43,1.09-0.78,1.78-1.05c0.68-0.26,1.47-0.39,2.35-0.39
		c0.74,0,1.41,0.11,2.02,0.31c0.61,0.21,1.13,0.5,1.57,0.88c0.44,0.38,0.79,0.83,1.05,1.35c0.26,0.52,0.41,1.08,0.46,1.7
		c0.07,1.05-0.09,2.01-0.48,2.87c-0.39,0.86-0.99,1.74-1.8,2.62l-5.34,5.87l0,0.05l6.18,0c0.2,0,0.29,0.09,0.26,0.27L294.68,20
		c-0.02,0.18-0.12,0.27-0.28,0.27l-10.48,0c-0.2,0-0.29-0.09-0.26-0.27L283.92,17.6z"/>
	<path class="st1" d="M297.53,16.11c-0.02-0.31-0.02-0.75,0-1.33c0.02-0.58,0.06-1.23,0.11-1.94c0.05-0.71,0.12-1.46,0.21-2.24
		c0.09-0.78,0.19-1.53,0.29-2.24c0.1-0.72,0.21-1.36,0.32-1.93c0.11-0.57,0.23-1.01,0.35-1.32c0.51-1.23,1.23-2.14,2.18-2.73
		c0.95-0.59,2.09-0.88,3.44-0.88c1.44,0,2.62,0.38,3.55,1.14c0.93,0.76,1.45,1.87,1.55,3.32c0.02,0.31,0.02,0.75,0,1.33
		c-0.02,0.58-0.06,1.23-0.11,1.94c-0.05,0.72-0.12,1.46-0.21,2.24c-0.09,0.78-0.19,1.53-0.29,2.24c-0.1,0.72-0.21,1.36-0.32,1.94
		c-0.11,0.58-0.23,1.02-0.35,1.31c-0.51,1.23-1.24,2.14-2.19,2.73s-2.1,0.88-3.43,0.88c-1.44,0-2.62-0.38-3.55-1.14
		C298.15,18.67,297.63,17.56,297.53,16.11z M301.14,15.81c0.03,0.49,0.2,0.89,0.49,1.21c0.29,0.32,0.7,0.48,1.22,0.48
		c0.47,0,0.86-0.11,1.18-0.34c0.32-0.23,0.56-0.55,0.73-0.97c0.08-0.18,0.17-0.52,0.27-1.02c0.1-0.5,0.19-1.08,0.28-1.74
		c0.09-0.66,0.17-1.36,0.26-2.11s0.15-1.45,0.22-2.12c0.06-0.67,0.1-1.27,0.13-1.81c0.03-0.53,0.03-0.92,0.01-1.15
		c-0.03-0.49-0.2-0.89-0.49-1.21c-0.29-0.32-0.7-0.48-1.22-0.48c-0.47,0-0.86,0.11-1.18,0.34c-0.32,0.23-0.56,0.55-0.73,0.96
		c-0.08,0.18-0.17,0.52-0.27,1.02c-0.1,0.5-0.19,1.08-0.28,1.74c-0.09,0.66-0.17,1.36-0.26,2.11c-0.08,0.74-0.16,1.45-0.22,2.12
		c-0.06,0.67-0.1,1.27-0.13,1.81C301.13,15.19,301.13,15.58,301.14,15.81z"/>
	<path class="st1" d="M314.95,5.9h-0.05l-3.09,2.06c-0.09,0.05-0.16,0.06-0.23,0.03c-0.07-0.04-0.08-0.11-0.06-0.22l0.32-3.18
		c0.02-0.18,0.09-0.31,0.22-0.38l3.26-2.25c0.17-0.11,0.33-0.16,0.47-0.16l2.91,0c0.2,0,0.28,0.09,0.26,0.27l-1.9,17.94
		c-0.02,0.18-0.12,0.27-0.28,0.27l-3.07,0c-0.2,0-0.28-0.09-0.26-0.27L314.95,5.9z"/>
	<path class="st1" d="M327.11,12.78l-0.03-0.03c-0.21,0.13-0.58,0.19-1.12,0.19c-0.63,0-1.21-0.11-1.73-0.33
		c-0.53-0.22-0.98-0.53-1.37-0.92c-0.39-0.4-0.7-0.88-0.95-1.43s-0.39-1.16-0.44-1.81c-0.07-0.94,0.04-1.83,0.31-2.68
		s0.69-1.58,1.25-2.21c0.56-0.63,1.25-1.14,2.09-1.51c0.84-0.37,1.79-0.56,2.87-0.56c0.75,0,1.44,0.11,2.07,0.31
		s1.18,0.51,1.65,0.91c0.48,0.4,0.86,0.88,1.14,1.46c0.28,0.57,0.45,1.21,0.5,1.92c0.07,0.94-0.05,1.88-0.36,2.81
		s-0.78,1.92-1.42,2.95l-5.11,8.23c-0.06,0.13-0.18,0.19-0.34,0.19l-3.26,0c-0.09,0-0.15-0.03-0.18-0.08
		c-0.03-0.05-0.02-0.12,0.03-0.19L327.11,12.78z M327.16,9.96c0.43,0,0.82-0.09,1.17-0.27c0.35-0.18,0.63-0.42,0.87-0.72
		s0.4-0.64,0.52-1.03c0.12-0.39,0.16-0.8,0.13-1.24c-0.04-0.63-0.25-1.15-0.62-1.54c-0.37-0.39-0.87-0.58-1.5-0.58
		c-0.43,0-0.82,0.09-1.17,0.27c-0.35,0.18-0.63,0.42-0.87,0.72c-0.23,0.3-0.4,0.65-0.52,1.05c-0.12,0.4-0.16,0.82-0.13,1.25
		c0.04,0.63,0.25,1.14,0.62,1.52C326.03,9.76,326.53,9.96,327.16,9.96z"/>
</g>
<g>
	<path class="st2" d="M6.53,13.21c0.07-0.59,0.36-0.89,0.89-0.89l6.9,0c0.83,0,1.29,0.3,1.4,0.89l12.7,38.12h0.27l19.24-38.11
		c0.3-0.59,0.75-0.89,1.34-0.89l7.96,0c0.65,0,0.94,0.3,0.87,0.89l-5.22,58.92c-0.07,0.6-0.36,0.89-0.9,0.89l-7.25,0
		c-0.59,0-0.85-0.3-0.79-0.89l3.39-38.21h-0.35L31.78,63.49c-0.35,0.77-0.9,1.16-1.67,1.16l-4.69,0c-0.71,0-1.21-0.39-1.52-1.16
		l-9.92-29.55h-0.27l-3.48,38.21c-0.07,0.6-0.34,0.89-0.81,0.89l-7.25,0c-0.65,0-0.94-0.3-0.87-0.89L6.53,13.21z"/>
	<path class="st2" d="M77.01,74.04c-4.72,0-8.53-1.33-11.45-3.98c-2.91-2.65-4.58-6.33-4.99-11.03c-0.11-1.31-0.15-2.8-0.12-4.46
		c0.03-1.67,0.15-3.36,0.35-5.09c0.2-1.73,0.48-3.41,0.84-5.04c0.36-1.64,0.78-3.05,1.27-4.24c1.54-3.93,3.83-6.77,6.86-8.52
		c3.03-1.75,6.7-2.63,11.01-2.63c4.72,0,8.53,1.33,11.45,3.98c2.91,2.65,4.58,6.33,4.99,11.03c0.11,1.31,0.16,2.8,0.12,4.46
		c-0.03,1.67-0.15,3.36-0.35,5.09c-0.2,1.73-0.49,3.41-0.84,5.04c-0.36,1.64-0.78,3.05-1.27,4.24c-1.6,3.93-3.91,6.77-6.91,8.52
		C84.97,73.17,81.32,74.05,77.01,74.04z M77.61,65.65c2.06,0,3.77-0.5,5.13-1.52c1.36-1.01,2.42-2.47,3.2-4.37
		c0.33-0.89,0.64-1.98,0.91-3.26c0.27-1.28,0.48-2.6,0.63-3.97c0.15-1.37,0.25-2.68,0.32-3.93c0.07-1.25,0.07-2.29-0.01-3.12
		c-0.22-2.56-0.93-4.54-2.11-5.94c-1.18-1.4-3.01-2.1-5.49-2.1c-2.06,0-3.77,0.52-5.13,1.56c-1.36,1.04-2.42,2.51-3.2,4.42
		c-0.34,0.83-0.65,1.89-0.92,3.17c-0.27,1.28-0.48,2.6-0.63,3.97c-0.15,1.37-0.25,2.69-0.32,3.97c-0.07,1.28-0.06,2.31,0,3.08
		c0.22,2.56,0.93,4.54,2.11,5.94C73.3,64.95,75.13,65.65,77.61,65.65z"/>
	<path class="st2" d="M126.99,73.09c-0.59,0-0.85-0.3-0.79-0.89l2.16-24.9c0.21-2.98-0.23-5.36-1.33-7.14
		c-1.1-1.79-2.98-2.68-5.63-2.68c-2.48,0-4.51,0.89-6.09,2.68c-1.58,1.78-2.52,4.1-2.8,6.96l-2.15,25.08
		c-0.07,0.6-0.34,0.89-0.81,0.89l-7.7,0c-0.65,0-0.94-0.3-0.87-0.89l3.64-41.24c0.07-0.59,0.36-0.89,0.89-0.89l7.68,0
		c0.59,0,0.85,0.3,0.78,0.89l-0.42,3.3h0.09c1.11-1.43,2.61-2.65,4.49-3.66c1.88-1.01,4.15-1.52,6.8-1.51c2.23,0,4.2,0.4,5.89,1.21
		c1.69,0.8,3.08,1.91,4.17,3.31c1.09,1.4,1.87,3.08,2.34,5.04c0.47,1.96,0.59,4.11,0.38,6.43l-2.32,27.14
		c-0.07,0.6-0.36,0.89-0.9,0.89L126.99,73.09z"/>
	<path class="st2" d="M159.37,74.09c-5.19,0-9.19-1.37-11.99-4.11c-2.8-2.74-4.42-6.58-4.85-11.52c-0.11-1.25-0.16-2.66-0.15-4.24
		c0.01-1.58,0.09-3.17,0.25-4.78c0.15-1.61,0.37-3.17,0.65-4.69c0.28-1.52,0.66-2.87,1.15-4.06c1.45-3.69,3.62-6.54,6.51-8.57
		c2.89-2.02,6.66-3.03,11.32-3.03c2.12,0,4.13,0.33,6.01,0.99c1.88,0.66,3.55,1.62,4.99,2.9c1.44,1.28,2.62,2.86,3.55,4.73
		c0.93,1.88,1.5,4.03,1.71,6.47c0.1,1.19,0.14,2.5,0.12,3.93c-0.02,1.43-0.17,3.3-0.44,5.62c-0.07,0.6-0.39,0.89-0.98,0.89
		l-25.3-0.01c-0.35,0-0.66,0.17-0.69,0.53c-0.02,0.32-0.01,0.6,0.02,0.9c0.03,0.3,0.05,0.6,0.08,0.89c0.28,3.21,1.18,5.48,2.71,6.79
		c1.53,1.31,3.62,1.97,6.28,1.97c2.06,0,3.99-0.44,5.77-1.34c1.78-0.89,3.27-1.93,4.46-3.12c0.44-0.42,0.88-0.42,1.33,0l4.17,4.2
		c0.45,0.48,0.47,0.95,0.04,1.43c-1.89,2.02-4.23,3.73-7.03,5.13C166.25,73.39,163.02,74.09,159.37,74.09z M168.81,47.49
		c0.35,0,0.57-0.18,0.66-0.54c0.08-0.48,0.11-0.95,0.1-1.43c-0.01-0.48-0.03-0.89-0.07-1.25c-0.22-2.5-0.99-4.31-2.33-5.45
		c-1.34-1.13-3.16-1.7-5.45-1.7c-2.01,0-3.76,0.47-5.27,1.42c-1.51,0.95-2.62,2.38-3.34,4.28c-0.24,0.6-0.45,1.25-0.62,1.96
		c-0.17,0.71-0.29,1.43-0.34,2.14c-0.09,0.36,0.05,0.54,0.4,0.54L168.81,47.49z"/>
	<path class="st2" d="M179.46,119.16h-7.78c-0.22,0-0.37-0.23-0.28-0.43l19.83-43.39l1.5-3.57c0.03-0.06,0.03-0.13,0.01-0.2
		l-11.39-40.59c-0.17-0.6,0.04-0.89,0.62-0.89l7.98,0c0.52,0,0.84,0.3,0.95,0.89l6.84,28.48h0.18L209.57,31
		c0.18-0.59,0.54-0.89,1.07-0.89l8.14,0c0.29,0,0.51,0.08,0.64,0.22c0.13,0.15,0.15,0.37,0.06,0.67L199.59,75.9l-19.55,42.89
		C179.94,119.01,179.71,119.16,179.46,119.16z"/>
</g>
</svg>
